<?xml version="1.0" encoding="utf-8"?>
<!DOCTYPE svg PUBLIC "-//W3C//DTD SVG 1.1//EN" "http://www.w3.org/Graphics/SVG/1.1/DTD/svg11.dtd">
<svg version="1.1" xmlns="http://www.w3.org/2000/svg" xmlns:xlink="http://www.w3.org/1999/xlink" x="0px" y="0px" viewBox="0 0 1000 1000" enable-background="new 0 0 1000 1000" xml:space="preserve">
<metadata> Svg Vector Icons : http://www.onlinewebfonts.com/icon </metadata>
<g><path fill="#fff" d="M945.5,277.3H54.5c-19.4,0-44.5-25.2-44.5-44.5c0-19.4,25.2-44.5,44.5-44.5h178.2V99.1c0-57.9,31.2-89.1,89.1-89.1h354c57.5,0,91.5,31.2,91.5,89.1v89.1h178.2c19.3,0,44.5,25.2,44.5,44.5C990,252.1,964.8,277.3,945.5,277.3L945.5,277.3z M678.2,143.6c0-19.6-25.3-44.5-44.5-44.5H366.4c-19.3,0-44.5,25.3-44.5,44.5v44.5h356.4V143.6L678.2,143.6z M455.5,366.4v445.5h-89.1V366.4H455.5z M633.6,366.4v445.5h-89.1V366.4H633.6z M188.2,321.8c19.3,0,44.5,25.2,44.5,44.5v490c0,19.3,25.3,44.5,44.5,44.5h445.5c19.3,0,44.5-25.2,44.5-44.5v-490c0-19.3,25.2-44.5,44.5-44.5c19.3,0,44.5,25.2,44.5,44.5v534.5c0,57.9-31.2,89.1-89.1,89.1H232.7c-57.9,0-89.1-31.2-89.1-89.1V366.4C143.6,347,168.8,321.8,188.2,321.8L188.2,321.8z"/></g>
</svg>